# xmcd
#
# Track frame offsets:
#	150
#	17447
#	35235
#	54020
#	70992
#	85348
#	98826
#	114142
#	130819
#	143788
#	158989
#	177251
#	192779
#
# Disc length: 2817 seconds
#
# Revision: 2
# Processed by: cddbd v1.5.2PL0 Copyright (c) Steve Scherf et al.
# Submitted via: audiograbber 1.83.01
#
DISCID=a40aff0d
DTITLE=Various Artist - CDX Volume 555 (September 24, 2012)
DYEAR=2012
DGENRE=Country
TTITLE0=Kix Brooks - Bring It On Home 
TTITLE1=Gloriana - Can't Shake You
TTITLE2=Sweetwater Rain - Starshine
TTITLE3=Little Big Town - Tornado
TTITLE4=Lizzie Sider - Butterfly 
TTITLE5=Todd Threet - Get Your Hillbilly On 
TTITLE6=Sarah Darling - Home To Me
TTITLE7=Amy Ames - I Love Beer Bellies
TTITLE8=Summer Schappell - It Ought To Be A Sin 
TTITLE9=Jasmine Seibers - Knockin' On Your Heart
TTITLE10=Steel Magnolia - Maybe I'm Amazed
TTITLE11=Rusty Rierson - Souvenirs
TTITLE12=Shailee Cole - You Got It
EXTD=
EXTT0=
EXTT1=
EXTT2=
EXTT3=
EXTT4=
EXTT5=
EXTT6=
EXTT7=
EXTT8=
EXTT9=
EXTT10=
EXTT11=
EXTT12=
PLAYORDER=
